<svg width="207" height="43" viewBox="0 0 207 43" fill="none" xmlns="http://www.w3.org/2000/svg">
<path d="M18.4001 12.5496C18.293 8.3932 13.6652 6.70063 10.1944 8.11468C6.72352 9.52872 6.42358 12.6353 9.16596 14.1779C14.4365 17.156 24.849 16.3418 24.6133 24.6761C24.3348 34.9386 9.29451 37.0168 3.38124 30.0323C-2.53202 23.0478 0.960233 26.1116 1.66725 24.2048H6.83065C7.302 29.4538 16.0862 31.2964 18.2073 26.6043C20.3283 21.9123 16.6432 22.4479 14.2008 21.5266C8.13757 19.277 0.403186 19.3627 1.77438 10.6C3.14557 1.83719 4.79529 4.98664 7.60194 3.78685C14.0723 1.02304 24.2705 4.23677 24.0777 12.3354L18.4001 12.5282V12.5496Z" fill="white"/>
<path d="M27.3771 42.116V11.9069H32.6262C32.669 11.9069 32.7976 11.6498 32.9476 11.7783C33.5475 12.1854 32.8619 13.7066 32.9476 13.8351C37.4468 9.70012 44.9241 10.3857 47.8164 15.999C49.9161 20.0698 49.6804 27.0757 46.6595 30.6322C43.9171 33.8674 38.8394 34.6601 35.0901 32.7747C34.533 32.4962 33.3761 31.4035 33.2689 31.3821C32.7333 31.3392 33.1618 31.8963 33.1618 31.9177V41.7732L32.8404 42.0945H27.3771V42.116ZM38.0467 15.8062C30.7837 16.2133 31.3621 29.7538 38.8394 29.0468C45.3097 28.4469 44.7313 15.442 38.0467 15.8062Z" fill="white"/>
<path d="M111.577 23.0478V33.2246L111.255 33.546H105.364V3.6583C105.364 3.01555 107.206 3.55118 107.613 3.55118C112.305 3.70115 119.525 2.62991 123.511 5.00807C130.881 9.40017 128.095 23.0478 118.968 23.0478H111.577ZM111.577 18.3343H115.969C116.397 18.3343 117.983 17.9915 118.476 17.8416C121.304 17.006 122.161 13.878 121.325 11.2641C120.854 9.80724 118.776 8.26465 117.254 8.26465H111.577V18.3343Z" fill="white"/>
<path d="M68.0844 3.33693V19.6198L75.4759 11.8855C75.6688 11.6498 75.8402 11.9069 75.9044 11.9069H81.6892C81.7749 11.9069 82.0748 11.3498 82.0105 12.014L74.5547 20.1126L83.5317 33.3317H76.033L70.6768 23.6906L68.1058 26.1544V33.3317H62.3211V3.33693H68.1058H68.0844Z" fill="white"/>
<path d="M103.221 24.1191H87.581C87.3025 28.854 92.9801 31.1036 96.4723 28.404C96.858 28.1041 97.6507 26.9043 97.7578 26.9043H102.364C101.314 30.825 97.9078 33.5674 93.8799 33.9531C77.7684 35.4742 78.2397 9.76439 93.6871 11.0499C100.5 11.6284 103.65 17.8416 103.221 24.1191ZM97.6507 20.4768C97.2436 13.5566 88.138 13.578 87.581 20.4768H97.6507Z" fill="white"/>
<path d="M191.899 33.546H186.114V18.87C186.114 18.8057 185.643 17.6273 185.557 17.4988C184.121 15.1206 180.736 15.9348 179.365 17.9273C179.215 18.1415 178.594 19.3842 178.594 19.5127V33.3318H172.595V11.9069H178.058C178.101 11.9069 178.444 11.5212 178.594 12.0354C178.744 12.5496 178.508 12.7639 178.422 13.1281C178.251 13.9851 179.837 12.4854 180.029 12.3782C183.779 10.3 189.221 10.5143 191.277 14.7564C191.385 14.9921 191.877 16.3847 191.877 16.5132V33.546H191.899Z" fill="white"/>
<path d="M201.968 11.9069L206.682 11.6926V15.9776H201.968V27.6542C201.968 29.1539 205.653 29.3253 206.682 28.8325V33.3318H200.576C199.676 33.3318 197.812 32.0463 197.255 31.2964C196.741 30.5894 195.969 28.6826 195.969 27.8684V15.9776L193.291 16.149L192.97 15.8705V12.014L193.291 11.7569L195.969 11.9069V6.22928L196.291 5.90791H201.647L201.968 6.22928V11.9069Z" fill="white"/>
<path d="M58.0147 11.9069H52.2299V33.3318H58.0147V11.9069Z" fill="white"/>
<path d="M169.617 11.9069H163.832V33.3318H169.617V11.9069Z" fill="white"/>
<path d="M58.4003 7.6219H50.9873C50.3231 7.6219 49.9161 6.89345 50.2589 6.31498L53.9011 0.401716C54.2225 -0.133905 55.0152 -0.133905 55.3366 0.401716L59.1288 6.31498C59.493 6.87203 59.0859 7.6219 58.4217 7.6219H58.4003Z" fill="white"/>
<path d="M166.146 2.95128C169.574 2.45851 171.138 7.23626 168.074 8.736C163.661 10.8785 161.261 3.6583 166.146 2.95128Z" fill="white"/>
<path d="M134.352 14.7778V14.9921C134.801 15.5491 135.744 16.6418 137.372 17.7773L137.694 17.6916C138.229 16.3204 139.215 14.3493 140.008 13.1709C143.029 8.41462 146.928 6.87203 149.649 6.40069V5.99361C148.706 5.67224 147.699 5.45799 146.649 5.37229C146.221 5.32944 145.835 5.30802 145.45 5.30802C145.064 5.30802 144.4 5.37229 143.821 5.50084C142.043 5.90791 140.35 6.89346 138.529 8.6503C136.601 10.5143 135.23 12.5068 134.352 14.7778Z" fill="#ED3F00"/>
<path d="M137.629 25.8545C139.386 26.4544 141.25 26.7543 143.2 26.7543C143.907 26.7543 144.635 26.7115 145.364 26.6258C145.878 26.5615 146.392 26.4758 146.928 26.3901H147.056L147.228 26.133C146.885 24.1405 146.114 22.2979 145.043 20.9482L144.828 20.8625C144.764 20.8625 144.7 20.8839 144.657 20.9053C143.521 21.1196 142.386 21.141 141.293 20.9482C137.844 20.3697 135.037 18.5486 132.937 15.5491C132.659 15.142 132.402 14.6921 132.209 14.3279H131.823C131.031 16.4275 130.666 18.8057 130.645 19.6198L130.688 19.727C130.966 20.1555 131.652 21.2267 132.123 21.848C133.537 23.712 135.401 25.0618 137.651 25.833L137.629 25.8545Z" fill="white"/>
<path d="M133.559 13.2138C134.394 11.5212 135.401 10.0001 136.558 8.69315L136.28 8.3932C135.08 9.31447 134.009 10.45 133.109 11.7569C133.023 11.8855 132.873 12.1211 132.766 12.314V12.5282C132.895 12.7639 133.045 13.021 133.173 13.2566H133.537L133.559 13.2138Z" fill="#ED3F00"/>
<path d="M139.579 16.856C139.365 17.3274 139.194 17.8201 139.001 18.3343L138.958 18.4415L139.086 18.72C140.479 19.2342 141.914 19.5127 143.264 19.5127C144.614 19.5127 144.228 19.4699 144.678 19.4056L144.85 19.2556C144.85 19.1913 144.893 19.1271 144.914 19.0842C145.3 17.9915 145.835 17.006 146.542 16.149C148.749 13.4495 151.727 11.9069 155.369 11.5855C155.669 11.5641 156.012 11.5427 156.398 11.5427C156.783 11.5427 156.655 11.5427 156.783 11.5427L156.955 11.1999C155.541 9.46445 153.677 7.98613 152.97 7.57906H152.841C152.327 7.57906 151.063 7.64333 150.292 7.72903C147.956 8.02898 145.878 8.97168 144.078 10.5357C142.193 12.1854 140.672 14.3065 139.558 16.856H139.579Z" fill="white"/>
<path d="M158.562 13.5994C158.497 13.4709 158.369 13.2138 158.262 13.021L158.09 12.9138C157.812 12.9138 157.533 12.9138 157.255 12.9138L157.083 13.2352C158.133 14.7992 158.947 16.4275 159.504 18.0987L159.697 18.0558L159.911 18.013C159.719 16.5132 159.269 15.0349 158.583 13.5994H158.562Z" fill="#ED3F00"/>
<path d="M143.736 33.7174C142.364 33.7174 141.036 33.5889 139.751 33.3103L139.622 33.7174C141.015 34.2959 142.536 34.6601 144.1 34.7886C144.25 34.7886 144.528 34.7886 144.743 34.8101L144.935 34.7029C145.043 34.5315 145.193 34.2745 145.364 33.9745L145.171 33.6531C144.678 33.6746 144.207 33.696 143.736 33.696V33.7174Z" fill="#ED3F00"/>
<path d="M155.305 13.1709C155.305 13.1495 155.112 13.0638 155.112 13.0638C154.427 13.1495 153.013 13.428 151.213 14.285L151.127 14.6064C152.027 15.7634 153.27 17.5845 153.87 18.87C155.541 22.0837 156.076 25.276 155.519 28.404C155.391 29.1539 155.177 29.9038 154.919 30.5894L155.262 30.825C156.034 30.1394 156.698 29.3896 157.319 28.5112C157.897 27.697 158.283 27.0971 158.626 26.0044C159.183 24.269 159.14 22.2979 158.54 19.8341C157.897 17.2417 156.848 15.0563 155.326 13.1495L155.305 13.1709Z" fill="#ED3F00"/>
<path d="M150.892 16.6204C150.592 16.1919 150.249 15.8062 149.906 15.3777L149.82 15.292H149.52C147.978 16.5561 146.757 18.1629 146.135 19.7698L146.178 19.9841C146.221 20.0269 146.264 20.0698 146.307 20.1126C147.056 20.991 147.656 21.9551 148.042 22.9835C149.285 26.2615 149.135 29.6038 147.571 32.9247C147.356 33.3746 147.099 33.8031 146.885 34.1673L147.099 34.4887C149.306 34.1245 151.534 33.2461 152.241 32.8604L152.327 32.7747C152.563 32.3248 153.141 31.1893 153.441 30.4823C154.341 28.3183 154.577 26.0259 154.105 23.6906C153.612 21.2267 152.541 18.8485 150.892 16.6204Z" fill="white"/>
<path d="M146.992 27.847C145.814 28.0184 144.335 28.1255 143.136 28.1255C141.936 28.1255 142.257 28.1255 141.914 28.0827C138.315 27.9113 135.273 26.7757 132.852 24.6975C132.273 24.2048 131.738 23.6477 131.266 23.0692L130.902 23.2406C131.116 24.2476 131.416 25.2117 131.866 26.1758C132.273 27.0757 132.595 27.7184 133.366 28.5754C134.587 29.9252 136.301 30.8893 138.744 31.5963C140.458 32.1105 142.172 32.3676 143.8 32.3676C145.428 32.3676 145.364 32.3034 146.135 32.1962H146.178L146.349 32.0677C146.628 31.4249 147.099 30.0537 147.271 28.0827L147.035 27.847H146.992Z" fill="#ED3F00"/>
</svg>
